<svg width="32" height="33" viewBox="0 0 32 33" fill="none" xmlns="http://www.w3.org/2000/svg">
<g id="icon/kids">
<path id="Union" fill-rule="evenodd" clip-rule="evenodd" d="M8.56647 15.2958C8.68516 14.8376 8.46624 14.3588 8.04196 14.1489C6.83486 13.5515 6 12.2947 6 10.8359C6 8.79092 7.63635 7.1524 9.63158 7.1524C11.0578 7.1524 12.2998 7.98748 12.8941 9.2156C13.1026 9.6465 13.5873 9.86918 14.0501 9.74672C14.6719 9.58217 15.3252 9.49414 16 9.49414C16.6748 9.49414 17.3281 9.58217 17.9499 9.74672C18.4127 9.86918 18.8974 9.6465 19.1059 9.2156C19.7002 7.98748 20.9422 7.1524 22.3684 7.1524C24.3637 7.1524 26 8.79092 26 10.8359C26 12.2947 25.1651 13.5515 23.958 14.1489C23.5338 14.3588 23.3148 14.8376 23.4335 15.2958C23.5969 15.9268 23.6842 16.5902 23.6842 17.2757C23.6842 21.5838 20.2334 25.0572 16 25.0572C11.7666 25.0572 8.31579 21.5838 8.31579 17.2757C8.31579 16.5902 8.40307 15.9268 8.56647 15.2958ZM5 10.8359C5 12.6851 6.05966 14.2836 7.59841 15.0451C7.41395 15.7573 7.31579 16.505 7.31579 17.2757C7.31579 22.1255 11.2038 26.0572 16 26.0572C20.7962 26.0572 24.6842 22.1255 24.6842 17.2757C24.6842 16.505 24.586 15.7573 24.4016 15.0451C25.9403 14.2836 27 12.6851 27 10.8359C27 8.24916 24.9264 6.1524 22.3684 6.1524C20.5398 6.1524 18.9587 7.22408 18.2058 8.78C17.5014 8.59362 16.7622 8.49414 16 8.49414C15.2378 8.49414 14.4986 8.59362 13.7942 8.78C13.0413 7.22408 11.4602 6.1524 9.63158 6.1524C7.0736 6.1524 5 8.24916 5 10.8359ZM19.5 18.1524C19.5 20.0854 17.933 21.6524 16 21.6524C14.067 21.6524 12.5 20.0854 12.5 18.1524C12.5 17.8763 12.2761 17.6524 12 17.6524C11.7239 17.6524 11.5 17.8763 11.5 18.1524C11.5 20.6377 13.5147 22.6524 16 22.6524C18.4853 22.6524 20.5 20.6377 20.5 18.1524C20.5 17.8763 20.2761 17.6524 20 17.6524C19.7239 17.6524 19.5 17.8763 19.5 18.1524Z" fill="inherit"/>
</g>
</svg>
