<svg xmlns="http://www.w3.org/2000/svg" width="33" height="32" viewBox="0 0 33 32" fill="none">
  <path fill-rule="evenodd" clip-rule="evenodd" d="M18.4995 25H14.4995V24H18.4995V25Z" fill="inherit"/>
  <path fill-rule="evenodd" clip-rule="evenodd" d="M25.5 21.5L25.0812 21.049C24.9162 20.8713 24.7586 20.6882 24.6085 20.5C23.1141 18.6269 22.3637 16.2564 22.5208 13.8481L22.577 12.9862C22.806 9.47438 20.0193 6.5 16.5 6.5C12.9807 6.5 10.194 9.47437 10.423 12.9862L10.4792 13.8481C10.6363 16.2564 9.88591 18.6269 8.39153 20.5C8.24141 20.6882 8.08379 20.8713 7.91882 21.049L7.5 21.5H25.5ZM23.3653 20.5C22.0248 18.543 21.3666 16.18 21.5229 13.783L21.5791 12.9211C21.7705 9.98596 19.4414 7.5 16.5 7.5C13.5586 7.5 11.2295 9.98596 11.4209 12.9211L11.4771 13.783C11.6334 16.18 10.9752 18.543 9.63467 20.5H23.3653Z" fill="inherit"/>
</svg>